# xmcd
#
# Track frame offsets:
#	150
#	22579
#	45492
#	56810
#	75821
#	94958
#	120090
#	141384
#	165608
#
# Disc length: 2447 seconds
#
# Revision: 7
# Processed by: cddbd v1.5.2PL0 Copyright (c) Steve Scherf et al.
# Submitted via: EZCDAudioConverter 7.1.0.1
#
DISCID=60098d09
DTITLE=周杰伦 - The Era 2010 World Tour 超时代演唱会 CD2
DYEAR=2011
DGENRE=
TTITLE0=免费教学录影带
TTITLE1=时光机
TTITLE2=爸 我回来了＋心事谁人知
TTITLE3=雨下一整晚
TTITLE4=爱的飞行日记(with 杨瑞代)
TTITLE5=以父之名
TTITLE6=开不了口
TTITLE7=东风破
TTITLE8=双截棍
EXTD=
EXTT0=
EXTT1=
EXTT2=
EXTT3=
EXTT4=
EXTT5=
EXTT6=
EXTT7=
EXTT8=
PLAYORDER=
